<svg id="web-page-home" xmlns="http://www.w3.org/2000/svg" width="27" height="24" viewBox="0 0 27 24">
  <g id="Group_8" data-name="Group 8" transform="translate(0 0)">
    <path id="Path_14" data-name="Path 14" d="M.933,40.645h2.2v8.769a.944.944,0,0,0,.943.939h6.441a.944.944,0,0,0,.943-.939v-6.42h3.927v6.42a.944.944,0,0,0,.943.939h6.126a.944.944,0,0,0,.943-.939V40.645h2.671a.935.935,0,0,0,.66-1.6L14.442,26.632a.941.941,0,0,0-1.32-.016L.289,39.033a.938.938,0,0,0-.22,1.033A.919.919,0,0,0,.933,40.645ZM13.751,28.62,23.8,38.766H22.454a.944.944,0,0,0-.943.939v8.769H17.27v-6.42a.944.944,0,0,0-.943-.939H10.515a.944.944,0,0,0-.943.939v6.42H5.017V39.706a.944.944,0,0,0-.943-.939H3.258Z" transform="translate(0 -26.353)" fill="#fff"/>
  </g>
</svg>
