<svg id="messenger-user-avatar" xmlns="http://www.w3.org/2000/svg" width="20.633" height="24.475" viewBox="0 0 20.633 24.475">
  <g id="Group_45" data-name="Group 45">
    <path id="Path_75" data-name="Path 75" d="M48.592,23.483a1.046,1.046,0,0,0,1.088.992H68.137a1.046,1.046,0,0,0,1.088-.992c0-5.487-2.72-10.2-6.545-12.08a6.082,6.082,0,0,0,3.064-5.189C65.744,2.793,62.68,0,58.927,0s-6.835,2.776-6.835,6.214A6.1,6.1,0,0,0,55.155,11.4C51.312,13.287,48.592,18,48.592,23.483Zm10.316-21.5A4.459,4.459,0,0,1,63.55,6.214a4.661,4.661,0,0,1-9.283,0A4.459,4.459,0,0,1,58.908,1.983Zm0,10.494c4.243,0,7.724,4.412,8.1,10.015H50.8C51.185,16.889,54.666,12.477,58.908,12.477Z" transform="translate(-48.592)" fill="#fff"/>
  </g>
</svg>
