<svg id="Layer_3" fill="#FFFFFF" enable-background="new 0 0 64 64" height="512" viewBox="0 0 64 64" width="512" xmlns="http://www.w3.org/2000/svg"><path d="m62 57h-1v-21c0-.553-.447-1-1-1h-19v-6h3c.553 0 1-.448 1-1v-4c0-.552-.447-1-1-1h-14c-.553 0-1 .448-1 1v4c0 .552.447 1 1 1h3v6h-6v-14c0-.379-.214-.725-.553-.895l-22-11c-.31-.153-.677-.138-.972.044-.295.183-.475.504-.475.851v47h-1c-.553 0-1 .447-1 1v4c0 .553.447 1 1 1h60c.553 0 1-.447 1-1v-4c0-.553-.447-1-1-1zm-3 0h-36v-20h36zm-28-32h12v2h-12zm4 4h4v6h-4zm-10-7.382v13.382h-3c-.553 0-1 .447-1 1v21h-10v-31c0-.552-.447-1-1-1h-5v-13.382zm-20 5.382h4v30h-4zm56 34h-58v-2h19 38 1z"/><path d="m58.92 7c-.488-3.387-3.401-6-6.92-6s-6.432 2.613-6.92 6h-4.08v2h4.08c.488 3.387 3.401 6 6.92 6s6.432-2.613 6.92-6h4.08v-2zm-6.92-4c2.414 0 4.434 1.721 4.899 4h-9.798c.465-2.279 2.485-4 4.899-4zm0 10c-2.414 0-4.434-1.721-4.899-4h9.798c-.465 2.279-2.485 4-4.899 4z"/><path d="m60 15c-1.654 0-3 1.346-3 3s1.346 3 3 3 3-1.346 3-3-1.346-3-3-3zm0 4c-.552 0-1-.449-1-1s.448-1 1-1 1 .449 1 1-.448 1-1 1z"/><path d="m55 26c0-2.206-1.794-4-4-4s-4 1.794-4 4 1.794 4 4 4 4-1.794 4-4zm-6 0c0-1.103.897-2 2-2s2 .897 2 2-.897 2-2 2-2-.897-2-2z"/><path d="m26 45h30c.553 0 1-.447 1-1v-4c0-.553-.447-1-1-1h-30c-.553 0-1 .447-1 1v4c0 .553.447 1 1 1zm1-4h28v2h-28z"/><path d="m26 53h30c.553 0 1-.447 1-1v-4c0-.553-.447-1-1-1h-30c-.553 0-1 .447-1 1v4c0 .553.447 1 1 1zm1-4h28v2h-28z"/></svg>