<svg xmlns="http://www.w3.org/2000/svg" width="30" height="30" viewBox="0 0 30 30">
  <g id="GithubIcon" transform="translate(-17.397 -21.732)">
    <g id="Group_96" data-name="Group 96" transform="translate(17.397 21.733)">
      <g id="Group_95" data-name="Group 95">
        <g id="Group_94" data-name="Group 94">
          <path id="Path_168" data-name="Path 168" d="M32.4,21.733a15.193,15.193,0,0,0-15,15.38,15.354,15.354,0,0,0,10.26,14.593c.75.142,1.024-.333,1.024-.741,0-.366-.013-1.333-.021-2.616-4.172.929-5.053-2.062-5.053-2.062a4.039,4.039,0,0,0-1.665-2.25c-1.363-.954.1-.934.1-.934a3.158,3.158,0,0,1,2.3,1.585,3.151,3.151,0,0,0,4.367,1.277,3.307,3.307,0,0,1,.953-2.056c-3.33-.389-6.833-1.708-6.833-7.6a6.034,6.034,0,0,1,1.545-4.128,5.652,5.652,0,0,1,.146-4.069s1.26-.413,4.125,1.576a13.876,13.876,0,0,1,7.511,0c2.863-1.99,4.121-1.576,4.121-1.576a5.66,5.66,0,0,1,.15,4.069,6.023,6.023,0,0,1,1.541,4.129c0,5.907-3.506,7.207-6.847,7.588a3.722,3.722,0,0,1,1.018,2.847c0,2.057-.019,3.715-.019,4.219,0,.412.27.89,1.031.739A15.357,15.357,0,0,0,47.4,37.113a15.194,15.194,0,0,0-15-15.38Zm0,0" transform="translate(-17.397 -21.733)" fill="#6e5494"/>
        </g>
      </g>
    </g>
  </g>
</svg>
