<svg id="ProjectsIcon" xmlns="http://www.w3.org/2000/svg" width="50" height="50" viewBox="0 0 50 50">
  <path id="Path_119" data-name="Path 119" d="M23.156,5.149A2.322,2.322,0,0,0,20.84,2.833H2.316A2.322,2.322,0,0,0,0,5.149V23.673a2.322,2.322,0,0,0,2.316,2.316H20.84a2.322,2.322,0,0,0,2.316-2.316ZM4.631,7.464H18.524V21.357H4.631Z" transform="translate(0 -2.833)" fill="#fff"/>
  <path id="Path_120" data-name="Path 120" d="M261.156,5.149a2.322,2.322,0,0,0-2.316-2.316H240.316A2.322,2.322,0,0,0,238,5.149V23.673a2.322,2.322,0,0,0,2.316,2.316H258.84a2.322,2.322,0,0,0,2.316-2.316ZM242.631,7.464h13.893V21.357H242.631Z" transform="translate(-211.156 -2.833)" fill="#fff"/>
  <path id="Path_121" data-name="Path 121" d="M23.156,237.483a2.322,2.322,0,0,0-2.316-2.316H2.316A2.322,2.322,0,0,0,0,237.483v18.524a2.322,2.322,0,0,0,2.316,2.316H20.84a2.322,2.322,0,0,0,2.316-2.316ZM4.631,239.8H18.524v13.893H4.631Z" transform="translate(0 -208.323)" fill="#fff"/>
  <path id="Path_122" data-name="Path 122" d="M261.156,237.483a2.322,2.322,0,0,0-2.316-2.316H240.316A2.322,2.322,0,0,0,238,237.483v18.524a2.322,2.322,0,0,0,2.316,2.316H258.84a2.322,2.322,0,0,0,2.316-2.316ZM242.631,239.8h13.893v13.893H242.631Z" transform="translate(-211.156 -208.323)" fill="#fff"/>
</svg>
