<svg id="closed-envelope-email" xmlns="http://www.w3.org/2000/svg" width="27.951" height="20.535" viewBox="0 0 27.951 20.535">
  <g id="Group_93" data-name="Group 93">
    <path id="Path_167" data-name="Path 167" d="M27.951,40.645a1.041,1.041,0,0,0-1.089-.978H1.089A1.041,1.041,0,0,0,0,40.645V59.226a1.041,1.041,0,0,0,1.089.978H26.862a1.041,1.041,0,0,0,1.089-.978ZM2.178,58.248V46.659l10.945,8.459a1.056,1.056,0,0,0,.69.228,1.367,1.367,0,0,0,.744-.228l11.217-8.427V58.248Zm23.6-16.625v2.526c-.181.016-.091.033-.109.033L13.83,53.1,2.214,44.133c-.018-.016-.036-.033-.036-.049V41.623Z" transform="translate(0 -39.667)" fill="#fff"/>
  </g>
</svg>
